<svg
fill="none"
	viewBox="0 0 102 23"
	xmlns="http://www.w3.org/2000/svg">
	<path
		fill-rule="evenodd"
		clip-rule="evenodd"
		d="M77.9626 4.91901C77.9626 5.46282 77.5176 5.90775 76.9491 5.90775C76.4053 5.90775 75.9356 5.46282 75.9356 4.91901C75.9356 4.3752 76.3806 3.93026 76.9491 3.93026C77.5176 3.93026 77.9626 4.3752 77.9626 4.91901ZM57.5944 4.91901C57.5944 5.46282 57.1495 5.90775 56.5809 5.90775C56.0371 5.90775 55.5675 5.46282 55.5675 4.91901C55.5675 4.3752 56.0124 3.93026 56.5809 3.93026C57.1495 3.93026 57.5944 4.3752 57.5944 4.91901ZM41.6756 4.91901C41.6756 5.46282 41.2307 5.90775 40.6621 5.90775C40.1183 5.90775 39.6487 5.46282 39.6487 4.91901C39.6487 4.3752 40.0936 3.93026 40.6621 3.93026C41.2307 3.93026 41.6756 4.3752 41.6756 4.91901ZM92.0275 12.5571C92.0275 13.62 92.3735 14.5346 93.0904 15.2514C93.8072 15.9682 94.6724 16.339 95.7105 16.339C96.6499 16.339 97.4903 15.9682 98.2071 15.2514C98.924 14.5346 99.2947 13.6694 99.2947 12.7054C99.2947 11.6672 98.9487 10.7773 98.2318 10.0358C97.515 9.2942 96.6746 8.92342 95.6858 8.92342C94.6724 8.92342 93.8319 9.26949 93.1151 9.98633C92.3735 10.6784 92.0275 11.5436 92.0275 12.5571ZM99.1712 17.8963V16.6109C98.6768 17.1053 98.133 17.5008 97.5397 17.748C96.9465 18.0199 96.3038 18.1435 95.6117 18.1435C94.005 18.1435 92.6949 17.6244 91.632 16.5615C90.5691 15.4986 90.05 14.1638 90.05 12.5818C90.05 11.8402 90.1736 11.1234 90.4455 10.456C90.7174 9.78858 91.0882 9.19533 91.5825 8.70096C92.1263 8.13243 92.6949 7.73693 93.3376 7.46503C93.9802 7.19312 94.6971 7.06953 95.5128 7.06953C96.2296 7.06953 96.897 7.19312 97.515 7.46503C98.133 7.71221 98.7015 8.10771 99.2206 8.6268V3.93026H101.124V17.921H99.1712V17.8963ZM81.6209 17.8963H79.7176V7.34143H81.5468V8.55265C81.9423 8.08299 82.3872 7.73693 82.8569 7.51446C83.3265 7.292 83.895 7.19312 84.513 7.19312C85.8972 7.19312 86.9849 7.58862 87.7264 8.40433C88.468 9.22005 88.8388 10.3818 88.8388 11.8897V17.921H86.9107V12.2852C86.9107 11.1728 86.713 10.3324 86.2927 9.78858C85.8725 9.24477 85.2298 8.97286 84.34 8.97286C83.3759 8.97286 82.6838 9.29421 82.2636 9.93689C81.8434 10.5796 81.6209 11.6178 81.6209 13.1009V17.8963ZM76.0345 17.8963H77.9378V7.34143H76.0345V17.8963ZM65.8752 12.5818C65.8752 11.2964 65.7021 10.3571 65.3313 9.78858C64.9606 9.19533 64.392 8.92342 63.601 8.92342C62.7853 8.92342 62.1674 9.22005 61.7719 9.8133C61.3764 10.4065 61.1786 11.2964 61.1786 12.5323V17.9457H59.3742V7.34143H61.0797V8.57736C61.4258 8.10771 61.8213 7.76165 62.291 7.51446C62.7359 7.292 63.255 7.1684 63.8235 7.1684C64.5898 7.1684 65.2325 7.31671 65.7516 7.61334C66.2707 7.90996 66.6909 8.37962 67.0122 8.99758C67.3336 8.37962 67.7785 7.93468 68.3223 7.61334C68.8661 7.31671 69.5335 7.1684 70.2998 7.1684C71.511 7.1684 72.475 7.5639 73.1919 8.33018C73.9087 9.09646 74.2795 10.1594 74.2795 11.4447V17.8963H72.3514V11.7413C72.3514 10.8268 72.1537 10.1346 71.7582 9.64027C71.3627 9.14589 70.7942 8.89871 70.102 8.89871C69.2616 8.89871 68.6684 9.17061 68.3223 9.6897C67.9515 10.2335 67.7785 11.1234 67.7785 12.384V17.8963H65.9246V12.5818H65.8752ZM55.6664 17.8963H57.5697V7.34143H55.6664V17.8963ZM44.8396 12.5571C44.8396 13.62 45.1857 14.5346 45.9025 15.2514C46.6193 15.9682 47.4845 16.339 48.5227 16.339C49.462 16.339 50.3024 15.9682 51.0193 15.2514C51.7361 14.5346 52.1069 13.6694 52.1069 12.7054C52.1069 11.6672 51.7608 10.7773 51.044 10.0358C50.3271 9.2942 49.4867 8.92342 48.498 8.92342C47.4845 8.92342 46.6441 9.26949 45.9272 9.98633C45.2104 10.6784 44.8396 11.5436 44.8396 12.5571ZM43.5542 18.7614H45.5812C45.8778 19.2558 46.2733 19.6266 46.7429 19.8985C47.2126 20.1457 47.7811 20.294 48.3991 20.294C49.4867 20.294 50.3519 19.9727 50.9945 19.33C51.6619 18.6873 51.9833 17.8221 51.9833 16.7592V16.6356C51.4889 17.13 50.9451 17.5255 50.3519 17.7727C49.7586 18.0446 49.1159 18.1682 48.4238 18.1682C46.8171 18.1682 45.507 17.6491 44.4441 16.5862C43.3812 15.5233 42.8621 14.1885 42.8621 12.6065C42.8621 11.8649 42.9857 11.1481 43.2576 10.4807C43.5295 9.8133 43.9003 9.22005 44.3947 8.72568C44.9385 8.15715 45.507 7.76165 46.1497 7.48974C46.7924 7.21784 47.5092 7.09425 48.3249 7.09425C49.0418 7.09425 49.7092 7.21784 50.3271 7.48974C50.9451 7.73693 51.5136 8.13243 52.0327 8.65152V7.36615H53.9361V16.1907C53.9361 18.0199 53.4664 19.4783 52.5024 20.5165C51.5383 21.5546 50.2283 22.0737 48.5474 22.0737C47.3362 22.0737 46.298 21.7771 45.4328 21.2086C44.543 20.6153 43.925 19.7996 43.5542 18.7614ZM39.7228 17.8963H41.6262V7.34143H39.7228V17.8963ZM28.9208 12.5571C28.9208 13.62 29.2669 14.5346 29.9837 15.2514C30.7005 15.9682 31.5657 16.339 32.6039 16.339C33.5432 16.339 34.3836 15.9682 35.1005 15.2514C35.8173 14.5346 36.1881 13.6694 36.1881 12.7054C36.1881 11.6672 35.842 10.7773 35.1252 10.0358C34.4083 9.2942 33.5679 8.92342 32.5792 8.92342C31.5657 8.92342 30.7253 9.26949 30.0084 9.98633C29.2669 10.6784 28.9208 11.5436 28.9208 12.5571ZM36.0645 17.8963V16.6109C35.5701 17.1053 35.0263 17.5008 34.4331 17.748C33.8398 18.0199 33.1971 18.1435 32.505 18.1435C30.8983 18.1435 29.5882 17.6244 28.5253 16.5615C27.4624 15.4986 26.9433 14.1638 26.9433 12.5818C26.9433 11.8402 27.0669 11.1234 27.3388 10.456C27.6107 9.78858 27.9815 9.19533 28.4759 8.70096C29.0197 8.13243 29.5882 7.73693 30.2309 7.46503C30.8736 7.19312 31.5904 7.06953 32.4061 7.06953C33.123 7.06953 33.7904 7.19312 34.4083 7.46503C35.0263 7.71221 35.5948 8.10771 36.1139 8.6268V3.93026H38.0173V17.921H36.0645V17.8963ZM16.8087 0V4.42463V4.59767V6.03135V10.6537V11.0987V11.2717V11.6178C16.8087 12.9773 16.2649 14.2626 15.3008 15.2267C15.2267 15.3008 15.1525 15.3503 15.0784 15.4244C14.1391 16.2649 12.9278 16.7345 11.6672 16.7345H11.5189C10.0605 16.7345 8.70096 16.166 7.66278 15.1525C7.21784 14.7076 6.84706 14.1885 6.57516 13.62C6.42684 13.2986 6.30325 12.9526 6.20438 12.5818C6.13022 12.2604 6.08078 11.9638 6.05606 11.6178C6.05606 11.5189 6.03135 11.4447 6.03135 11.3459C6.03135 9.93689 6.59987 8.60208 7.61334 7.61334C8.6268 6.59987 9.98633 6.05606 11.42 6.05606V0C8.50321 0 5.58641 1.11234 3.36173 3.33702C2.5213 4.17745 1.82918 5.11676 1.31009 6.1055C0.444935 7.73693 0 9.51667 0 11.3211C0 11.4694 0 11.6425 0.0247186 11.7908C0.0247186 11.8897 0.0494373 12.0133 0.0494373 12.1121C0.247186 14.757 1.35952 17.3525 3.38645 19.3794C3.68308 19.676 4.00442 19.9727 4.35048 20.2446C5.58641 21.2333 6.99537 21.9254 8.47849 22.3209C8.52793 22.3456 8.57737 22.3456 8.6268 22.3704C9.59083 22.6175 10.5796 22.7411 11.5436 22.7411H11.6919C14.5593 22.7411 17.4266 21.6535 19.6019 19.4783C20.6401 18.4401 21.4311 17.2536 21.9749 15.993C21.9996 15.9435 22.049 15.8446 22.0737 15.7458C22.0985 15.6963 22.0985 15.6716 22.1232 15.6222C22.1479 15.5727 22.1479 15.5727 22.1479 15.548C22.6175 14.2874 22.8647 12.9526 22.8647 11.6178V7.31671V0H16.8087Z"
		fill="currentColor" />
</svg>
