<svg
	fill="none"
	viewBox="0 0 60 22"
	xmlns="http://www.w3.org/2000/svg">
	<path
		d="M59.6174 0.565218L16 19.1391C12.3826 20.6696 9.34493 21.4348 6.88696 21.4348C4.10435 21.4348 2.08696 20.4609 0.834784 18.513C0.046378 17.2609 -0.185506 15.6725 0.139132 13.7478C0.463769 11.8232 1.32174 9.77102 2.71304 7.5913C3.87246 5.82899 5.77391 3.51015 8.41739 0.634783C7.48986 2.11884 6.84058 3.64928 6.46957 5.22609C5.77391 8.1942 6.4 10.3739 8.34783 11.7652C9.27536 12.4145 10.5507 12.7391 12.1739 12.7391C13.4725 12.7391 14.9333 12.5304 16.5565 12.113L59.6174 0.565218Z"
		fill="currentColor" />
</svg>
